<?xml version="1.0" encoding="UTF-8" standalone="no"?>
<!-- Created with Inkscape (http://www.inkscape.org/) -->

<svg
   xmlns:dc="http://purl.org/dc/elements/1.1/"
   xmlns:cc="http://creativecommons.org/ns#"
   xmlns:rdf="http://www.w3.org/1999/02/22-rdf-syntax-ns#"
   xmlns:svg="http://www.w3.org/2000/svg"
   xmlns="http://www.w3.org/2000/svg"
   xmlns:sodipodi="http://sodipodi.sourceforge.net/DTD/sodipodi-0.dtd"
   xmlns:inkscape="http://www.inkscape.org/namespaces/inkscape"
   width="1000"
   height="355.56964"
   id="svg3647"
   version="1.1"
   inkscape:version="0.48.5 r10040"
   sodipodi:docname="A.svg">
  <defs
     id="defs3649">
    <clipPath
       clipPathUnits="userSpaceOnUse"
       id="clipPath3121">
      <path
         inkscape:connector-curvature="0"
         d="m 412.56,35.844 163.685,0 0,33.996 -163.685,0 0,-33.996 z"
         id="path3123" />
    </clipPath>
  </defs>
  <sodipodi:namedview
     id="base"
     pagecolor="#ffffff"
     bordercolor="#666666"
     borderopacity="1.0"
     inkscape:pageopacity="0.0"
     inkscape:pageshadow="2"
     inkscape:zoom="0.40023349"
     inkscape:cx="831.25438"
     inkscape:cy="473.0343"
     inkscape:document-units="px"
     inkscape:current-layer="layer1"
     showgrid="true"
     fit-margin-left="0.5"
     fit-margin-bottom="0.5"
     fit-margin-top="0.5"
     fit-margin-right="0.5"
     inkscape:window-width="1024"
     inkscape:window-height="1025"
     inkscape:window-x="890"
     inkscape:window-y="-7"
     inkscape:window-maximized="0">
    <inkscape:grid
       type="xygrid"
       id="grid26491"
       empspacing="5"
       visible="true"
       enabled="true"
       snapvisiblegridlinesonly="true"
       originx="22.5px"
       originy="654.50001px" />
  </sodipodi:namedview>
  <metadata
     id="metadata3652">
    <rdf:RDF>
      <cc:Work
         rdf:about="">
        <dc:format>image/svg+xml</dc:format>
        <dc:type
           rdf:resource="http://purl.org/dc/dcmitype/StillImage" />
        <dc:title></dc:title>
      </cc:Work>
    </rdf:RDF>
  </metadata>
  <g
     inkscape:label="Layer 1"
     inkscape:groupmode="layer"
     id="layer1"
     transform="translate(-1313.7026,984.02345)">
    <path
       style="fill:#e31836;fill-opacity:1;fill-rule:evenodd;stroke:none"
       d="m 1314.2026,-628.9538 0,-354.56965 999,0 0,354.56965 z"
       id="path26493"
       inkscape:connector-curvature="0" />
    <g
       id="g26404"
       transform="matrix(0,25.479575,25.479575,0,2137.815,-846.15579)"
       style="fill:#ffffff">
      <path
         d="m 0,0 c 0,0.309 0.129,0.664 0.318,0.879 l 1.973,0 C 2.553,0.652 2.754,0.284 2.754,-0.144 2.754,-0.548 2.361,-0.903 1.447,-0.903 0.582,-0.903 0,-0.665 0,0 z m 3.717,2.078 -4.643,0 0,-1.117 0.321,-0.035 c -0.227,-0.249 -0.416,-0.69 -0.416,-1.141 0,-1.269 0.998,-1.947 2.468,-1.947 1.33,0 2.364,0.666 2.364,1.841 0,0.45 -0.213,0.914 -0.571,1.2 l 0.477,0.07 0,1.129 z M 0,-4.689 c 0,0.308 0.129,0.665 0.318,0.877 l 1.784,0 c 0.259,-0.225 0.462,-0.593 0.462,-1.02 0,-0.404 -0.285,-0.76 -1.199,-0.76 C 0.498,-5.592 0,-5.355 0,-4.689 z m 5.145,-1.579 c 0.105,0.344 0.199,0.84 0.199,1.614 0,1.388 -0.75,2.042 -2.293,2.042 l -3.977,0 0,-1.117 0.321,-0.034 c -0.227,-0.251 -0.416,-0.69 -0.416,-1.141 0,-1.27 0.914,-1.947 2.386,-1.947 1.33,0 2.256,0.665 2.256,1.841 0,0.45 -0.215,0.914 -0.57,1.198 l 0.273,0 c 0.582,0 1.01,-0.32 1.01,-1.02 0,-0.595 -0.107,-0.939 -0.215,-1.223 l 1.026,-0.213 z m -1.428,-1.029 -3.242,0 c -0.975,0 -1.496,-0.641 -1.496,-1.412 0,-0.713 0.332,-1.163 0.748,-1.496 l -0.653,-0.071 0,-1.128 4.643,0 0,1.199 -3.006,0 C 0.26,-9.85 0.082,-9.457 0.082,-9.1 c 0,0.356 0.178,0.605 0.76,0.605 l 2.875,0 0,1.198 z m 1.578,-6.899 -6.221,2.481 0,-1.199 3.028,-1.128 -3.028,-1.058 0,-1.293 4.416,1.698 1.805,-0.807 0,1.306 z m -1.578,-2.314 -1.01,0.205 0,-2.546 -3.633,2.234 0,-3.95 1.02,-0.208 0,2.199 3.623,-2.351 0,4.417"
         style="fill:#ffffff;fill-opacity:1;fill-rule:nonzero;stroke:none"
         id="path26406"
         inkscape:connector-curvature="0" />
    </g>
    <g
       id="g26408"
       transform="matrix(0,10.683951,10.683951,0,2213.3326,-761.27817)"
       style="fill:#ffffff">
      <path
         d="m 0,0 0,0.171 c 0,0.145 -0.008,0.277 -0.174,0.277 -0.138,0 -0.162,-0.12 -0.162,-0.231 L -0.336,0 0,0 z m -0.469,-0.165 0,0.408 c 0,0.252 0.1,0.369 0.303,0.369 0.189,0 0.27,-0.12 0.287,-0.277 l 0.465,0.302 0,-0.176 -0.453,-0.288 0,-0.173 0.453,0 0,-0.165 -1.055,0 z M 0.83,0.188 c 0,0.418 -0.332,0.74 -0.773,0.74 -0.432,0 -0.766,-0.322 -0.766,-0.74 0,-0.421 0.334,-0.745 0.766,-0.745 0.441,0 0.773,0.324 0.773,0.745 z m -1.672,0 c 0,0.493 0.389,0.905 0.899,0.905 0.517,0 0.906,-0.412 0.906,-0.905 0,-0.495 -0.389,-0.91 -0.906,-0.91 -0.51,0 -0.899,0.415 -0.899,0.91"
         style="fill:#ffffff;fill-opacity:1;fill-rule:nonzero;stroke:none"
         id="path26410"
         inkscape:connector-curvature="0" />
    </g>
    <g
       id="g26412"
       transform="matrix(8.0827411,0,0,-8.0827411,1544.2291,-903.72116)"
       style="fill:#ffffff">
      <path
         d="M 0,0 C 0.346,0.422 0.869,0.805 1.57,0.173 2.271,-0.461 2.877,-1.011 2.684,-1.198 2.549,-1.328 2.252,-1.158 2.055,-1.052 1.801,-1.176 1.684,-1.352 1.609,-1.645 1.535,-1.941 1.445,-2.281 1.293,-2.326 1.465,-3.162 1.379,-4.732 1.1,-5.222 L 1.096,-6.107 c 0.759,-1.369 1.273,-5.09 0.267,-6.804 0,0 -0.015,-2.207 -0.439,-3.178 0,0 -0.483,-2.097 -0.342,-3.213 0.231,-0.098 0.805,-0.438 0.904,-0.629 0.102,-0.189 0.149,-0.484 0.123,-0.565 -0.271,-0.486 -1.716,-0.5 -2.377,-0.008 -0.148,0.457 0.096,2.252 0.026,3.319 -0.067,1.069 -0.172,1.486 -0.383,2.912 -0.898,-0.215 -1.912,-0.269 -2.951,-0.164 -0.279,-1.216 -0.77,-2.97 -0.836,-4.019 -0.047,-0.775 -0.113,-3.042 -0.113,-3.042 0.017,-0.232 0.158,-0.403 0.181,-0.555 0.028,-0.197 0.069,-0.515 0.014,-0.672 -0.379,-0.715 -2.02,-0.629 -2.287,-0.021 -0.014,0.158 0.039,0.562 0.125,0.68 0.09,0.156 0.459,0.413 0.539,0.603 0.092,0.75 0.187,3.555 -0.018,4.189 -0.308,0.586 -0.523,2.173 -0.584,3.586 -0.164,0.069 -1.023,0.54 -1.828,1.051 -0.277,-0.941 -0.879,-1.422 -0.879,-1.422 l 0.278,-1.299 c 0.205,-0.023 0.777,-0.265 0.882,-0.445 0.108,-0.184 0.118,-0.361 0.098,-0.486 -0.178,-0.311 -1.422,-0.27 -1.652,0.034 l -0.865,2.629 c 0,0 0.324,0.872 0.181,2.024 -2.66,-0.283 -3.459,-3.696 -3.762,-5.312 l 0.053,-0.236 0,-0.397 c -0.252,-0.416 -1.496,-0.36 -1.787,-0.01 0,0.121 0.043,0.34 0.139,0.479 0.093,0.139 0.537,0.463 0.646,0.537 l 0.59,2.332 c 0.096,2.609 0.764,5.084 1.838,6.418 -1.471,1.832 -1.326,3.871 -0.139,4.939 0.125,0.111 0.334,0.242 0.408,0.197 0.088,-0.052 0.059,-0.14 -0.076,-0.34 -0.826,-1.238 -0.683,-2.912 0.862,-3.826 1.785,1.093 6.923,1.339 6.923,1.339 l 0.149,0.486 c -0.104,0.185 -0.277,1.082 -0.227,1.546 -0.074,0.034 -0.226,0.223 -0.424,0.394 -0.207,0.179 -0.458,0.178 -0.537,0.306 -0.574,-0.727 -0.42,0.191 -0.343,0.537 0.148,0.665 0.244,1.613 1.283,1.702 0.232,0.021 0.73,-0.005 0.924,-0.243 0.181,0.275 1.656,0.587 1.943,0.549 C -2.053,0.063 -0.129,0.129 0,0"
         style="fill:#ffffff;fill-opacity:1;fill-rule:nonzero;stroke:none"
         id="path26414"
         inkscape:connector-curvature="0" />
    </g>
  </g>
</svg>
